<?xml version="1.0" encoding="utf-8"?>
<!-- Generator: Adobe Illustrator 19.0.0, SVG Export Plug-In . SVG Version: 6.00 Build 0)  -->
<svg version="1.1" id="Слой_1" xmlns="http://www.w3.org/2000/svg" xmlns:xlink="http://www.w3.org/1999/xlink" x="0px" y="0px"
	 viewBox="0 0 90 80" enable-background="new 0 0 90 80" xml:space="preserve">
<g id="XMLID_6150_">
	<path id="XMLID_6170_" fill="#F2AE32" d="M45.2,80c-0.2,0-0.4,0-0.5,0c-8.6-0.1-16.9-2.6-24.2-7.2C13.2,68.1,7.4,61.6,3.6,53.8
		c-0.1-0.2,0-0.4,0.2-0.5c0.2-0.1,0.4,0,0.5,0.2c3.7,7.6,9.4,14.1,16.5,18.7c7.2,4.6,15.4,7,23.8,7.1c8.3,0.1,16.5-2.1,23.7-6.4
		c7.2-4.3,13-10.4,16.9-17.8c0.1-0.2,0.3-0.2,0.5-0.1c0.2,0.1,0.2,0.3,0.1,0.5c-4,7.5-9.9,13.7-17.2,18.1C61.5,77.8,53.4,80,45.2,80
		z"/>
	<path id="XMLID_6169_" fill="#F2AE32" d="M2.5,50.6c-0.1,0-0.3-0.1-0.3-0.2l-0.8-2.5c-0.1-0.2,0-0.4,0.2-0.4c0.2-0.1,0.4,0,0.4,0.2
		l0.8,2.5c0.1,0.2,0,0.4-0.2,0.4C2.6,50.6,2.6,50.6,2.5,50.6z"/>
	<path id="XMLID_6168_" fill="#F2AE32" d="M87.2,52c0,0-0.1,0-0.1,0c-0.2-0.1-0.3-0.3-0.2-0.4l1.1-2.9c0.1-0.2,0.3-0.3,0.4-0.2
		c0.2,0.1,0.3,0.3,0.2,0.4l-1.1,2.9C87.5,51.9,87.3,52,87.2,52z"/>
	<path id="XMLID_6167_" fill="none" d="M7.8,60.2"/>
	<path id="XMLID_6166_" fill="none" d="M13.7,67"/>
	<g id="Рука">
		<path id="XMLID_6165_" fill="#F2AE32" d="M13.7,67.4c-0.1,0-0.2,0-0.2-0.1c-0.1-0.1-0.2-0.3,0-0.5l0.1-0.1
			c6-6.8,6.6-11.3,6.1-13.8c-0.4-1.9-2.2-3.9-4.2-6c-2-2.3-4.1-4.6-4.9-7c-0.8-2.7,0.3-9.7,1.1-12.6c0.4-1.4-0.7-2.2-1.2-2.5
			c-2.9,5.2-4,15.5-2.9,18.3c0.7,1.9,1.4,3.4,2,4.8c2.5,5.6,3.5,7.9-1.4,12.8c-0.1,0.1-0.4,0.1-0.5,0c-0.1-0.1-0.1-0.4,0-0.5
			c4.6-4.6,3.7-6.5,1.3-12.1c-0.6-1.4-1.3-2.9-2-4.8c-1.2-3,0-13.8,3.1-19.1c0.1-0.1,0.3-0.2,0.4-0.1c0.9,0.4,2.4,1.6,1.9,3.5
			c-0.8,3.1-1.9,9.8-1.1,12.3c0.7,2.3,2.8,4.6,4.7,6.8c2,2.2,3.9,4.3,4.3,6.4c0.5,2.7-0.1,7.3-6.3,14.4l-0.1,0.1
			C13.8,67.3,13.7,67.4,13.7,67.4z"/>
		<path id="XMLID_6164_" fill="#F2AE32" d="M11.9,42.3c-0.2,0-0.3-0.1-0.3-0.3c-0.3-5.7,0.2-8.2,4-13.7c0.5-0.7,0.6-1.3,0.5-1.9
			c-0.1-0.4-0.3-0.7-0.6-0.9c-0.7,0.7-2.8,3-3.9,4.9c-0.1,0.2-0.3,0.2-0.5,0.1C11,30.4,10.9,30.2,11,30c1.3-2.4,4.1-5.2,4.2-5.3
			c0.1-0.1,0.3-0.1,0.4-0.1c0.5,0.3,1,0.9,1.1,1.5c0.1,0.5,0.1,1.4-0.6,2.5C12.4,34,12,36.3,12.3,42C12.3,42.2,12.1,42.3,11.9,42.3
			C11.9,42.3,11.9,42.3,11.9,42.3z"/>
		<path id="XMLID_6163_" fill="#F2AE32" d="M13.4,44.4c-0.2,0-0.3-0.1-0.3-0.3c-0.9-6.5,1.1-9.6,2.7-12c0.2-0.3,0.3-0.5,0.5-0.8
			c0.3-0.5,0.4-1.8-0.5-2.8c-0.1-0.1-0.1-0.4,0-0.5c0.1-0.1,0.4-0.1,0.5,0c1.1,1.2,1.1,2.8,0.6,3.7c-0.2,0.3-0.3,0.5-0.5,0.8
			c-1.7,2.5-3.5,5.3-2.6,11.6C13.8,44.2,13.6,44.3,13.4,44.4C13.4,44.4,13.4,44.4,13.4,44.4z"/>
		<path id="XMLID_6162_" fill="#F2AE32" d="M20.1,54.5c-0.2,0-0.3-0.2-0.3-0.3c0-7-0.4-12.9-0.5-14.4c-1,0.3-2.3,1.9-2.3,3.3l0,1.3
			c0,0.9,0,2,0,3.1c0,0.2-0.2,0.3-0.3,0.3s-0.3-0.2-0.3-0.3c0-1.1,0-2.2,0-3.1l0-1.3c0-1.9,1.8-4.1,3.3-4.1c0.2,0,0.3,0.1,0.3,0.3
			c0,0.1,0.5,6.6,0.5,14.8C20.4,54.4,20.3,54.5,20.1,54.5z"/>
	</g>
	<g id="Рука_1_">
		<path id="XMLID_6161_" fill="#F2AE32" d="M76.9,67c-0.1,0-0.2,0-0.3-0.1l-0.1-0.1c-6.2-7-6.8-11.7-6.3-14.4c0.4-2,2.3-4.1,4.3-6.4
			c2-2.2,4-4.5,4.7-6.8c0.8-2.5-0.3-9.2-1.1-12.3c-0.5-1.9,1-3.1,1.9-3.5c0.2-0.1,0.3,0,0.4,0.1c3.2,5.4,4.3,16.2,3.1,19.1
			c-0.7,1.9-1.4,3.4-2,4.8c-2.5,5.6-3.3,7.5,1.3,12.1c0.1,0.1,0.1,0.4,0,0.5c-0.1,0.1-0.4,0.1-0.5,0c-4.9-4.9-3.9-7.2-1.4-12.8
			c0.6-1.4,1.3-2.9,2-4.8c1.1-2.8,0-13-2.9-18.3c-0.5,0.3-1.6,1.1-1.2,2.5c0.8,2.9,1.9,9.9,1.1,12.6c-0.7,2.5-2.8,4.8-4.9,7
			c-1.9,2.2-3.8,4.2-4.2,6c-0.5,2.5,0.1,7,6.1,13.8l0.1,0.1c0.1,0.1,0.1,0.4,0,0.5C77,67,76.9,67,76.9,67z"/>
		<path id="XMLID_6160_" fill="#F2AE32" d="M78.6,42C78.6,42,78.6,42,78.6,42c-0.2,0-0.4-0.2-0.3-0.4c0.3-5.7-0.1-7.9-3.8-13.3
			c-0.7-1.1-0.7-1.9-0.6-2.5c0.2-0.6,0.6-1.2,1.1-1.5c0.1-0.1,0.3,0,0.4,0.1c0.1,0.1,2.8,2.9,4.2,5.3c0.1,0.2,0,0.4-0.1,0.5
			c-0.2,0.1-0.4,0-0.5-0.1c-1.1-2-3.2-4.2-3.9-4.9c-0.2,0.2-0.5,0.5-0.6,0.9c-0.1,0.6,0,1.3,0.5,1.9c3.8,5.5,4.3,8,4,13.7
			C78.9,41.9,78.8,42,78.6,42z"/>
		<path id="XMLID_6159_" fill="#F2AE32" d="M77.1,44C77.1,44,77.1,44,77.1,44c-0.2,0-0.4-0.2-0.3-0.4c0.9-6.3-1-9.1-2.6-11.6
			c-0.2-0.3-0.3-0.5-0.5-0.8c-0.5-0.8-0.5-2.4,0.6-3.7c0.1-0.1,0.3-0.2,0.5,0c0.1,0.1,0.2,0.3,0,0.5c-0.9,1-0.9,2.3-0.5,2.8
			c0.2,0.3,0.3,0.5,0.5,0.8c1.6,2.5,3.7,5.5,2.7,12C77.4,43.9,77.3,44,77.1,44z"/>
		<path id="XMLID_6158_" fill="#F2AE32" d="M70.4,54.2c-0.2,0-0.3-0.2-0.3-0.3c0-8.1,0.5-14.7,0.5-14.8c0-0.2,0.2-0.3,0.3-0.3
			c1.5,0,3.3,2.2,3.3,4.1l0,1.3c0,0.9,0,2,0,3.1c0,0.2-0.2,0.3-0.3,0.3c-0.2,0-0.3-0.2-0.3-0.3c0-1.1,0-2.2,0-3.1l0-1.3
			c0-1.4-1.3-3-2.3-3.3c-0.1,1.5-0.5,7.3-0.5,14.4C70.8,54,70.6,54.2,70.4,54.2z"/>
	</g>
	<g id="Рука_2_">
		<path id="XMLID_6157_" fill="#F2AE32" d="M30.9,77.6c-0.1,0-0.1,0-0.2,0c-0.2-0.1-0.2-0.3-0.2-0.5c3.1-6.2,5.6-6,11.7-5.4
			c1.5,0.1,3.2,0.3,5.2,0.4c2.9,0.1,12.4-4.2,16.4-8.6c-0.5-0.4-1.6-1.2-2.8-0.4c-2.5,1.7-8.8,5-11.6,5.1c-2.6,0.1-5.4-1.2-8.2-2.4
			c-2.7-1.2-5.2-2.3-7.1-2c-2.6,0.3-6.5,2.3-11,10L23,73.9c-0.1,0.2-0.3,0.2-0.5,0.1c-0.2-0.1-0.2-0.3-0.1-0.5l0.1-0.1
			c4.6-7.9,8.8-10,11.5-10.3c2.1-0.3,4.7,0.9,7.4,2.1c2.7,1.2,5.5,2.4,7.9,2.3c2.6-0.1,8.6-3.2,11.3-5c1.7-1.1,3.3,0,3.9,0.7
			c0.1,0.1,0.1,0.3,0,0.5c-4,4.6-13.6,9.1-17,9.1c-0.1,0-0.1,0-0.2,0c-2-0.1-3.7-0.3-5.2-0.4c-6.1-0.6-8.2-0.8-11,5
			C31.1,77.6,31,77.6,30.9,77.6z"/>
		<path id="XMLID_6156_" fill="#F2AE32" d="M46.9,67.9c-0.2,0-0.3-0.1-0.3-0.3c-0.1-0.2,0.1-0.4,0.2-0.4c5.5-1.5,7.5-2.7,11.4-7.9
			c0.8-1,1.6-1.3,2.2-1.4c0.7-0.1,1.3,0.2,1.8,0.6c0.1,0.1,0.1,0.3,0.1,0.4c-0.1,0.1-1.8,3.6-3.7,5.6c-0.1,0.1-0.3,0.2-0.5,0
			c-0.1-0.1-0.2-0.3,0-0.5c1.5-1.7,3-4.4,3.4-5.2c-0.3-0.2-0.6-0.3-1-0.2c-0.6,0.1-1.2,0.4-1.7,1.1C54.7,65.1,52.5,66.4,46.9,67.9
			C47,67.9,46.9,67.9,46.9,67.9z"/>
		<path id="XMLID_6155_" fill="#F2AE32" d="M44.5,67.2c-0.2,0-0.3-0.1-0.3-0.3c0-0.2,0.1-0.4,0.3-0.4c6.2-1.1,8.3-3.8,10.1-6.2
			c0.2-0.2,0.4-0.5,0.6-0.7c0.6-0.8,2.1-1.3,3.7-0.6c0.2,0.1,0.3,0.3,0.2,0.5c-0.1,0.2-0.3,0.3-0.5,0.2c-1.3-0.6-2.4-0.1-2.8,0.4
			c-0.2,0.2-0.4,0.5-0.6,0.7C53.3,63.1,51.1,66,44.5,67.2C44.6,67.2,44.5,67.2,44.5,67.2z"/>
		<path id="XMLID_6154_" fill="#F2AE32" d="M40.1,65.3c-0.1,0-0.3-0.1-0.3-0.2c-0.1-0.2,0-0.4,0.2-0.4c1-0.4,2.1-0.7,2.9-1
			c0.6-0.2,1-0.3,1.3-0.4c1.4-0.5,2.5-2.2,2.4-3.3c-1.4,0.4-7.1,1.9-13.8,4.1c-0.2,0.1-0.4,0-0.4-0.2c-0.1-0.2,0-0.4,0.2-0.4
			c7.7-2.6,14.1-4.2,14.2-4.2c0.2,0,0.4,0.1,0.4,0.2c0.5,1.5-1,3.9-2.8,4.5c-0.3,0.1-0.7,0.3-1.3,0.4c-0.8,0.3-1.9,0.6-2.9,1
			C40.2,65.3,40.1,65.3,40.1,65.3z"/>
	</g>
	<g id="Фигура">
		<path id="XMLID_6153_" fill="#F2AE32" d="M42.4,41.8c-0.1,0-0.2-0.1-0.3-0.2L18.3,0.5c-0.1-0.1-0.1-0.2,0-0.3S18.5,0,18.6,0h53.3
			c0.1,0,0.2,0.1,0.3,0.2l3.1,5.1l-0.6,0.4l-3-4.9H19.2l23.1,40.1l17.3-30.2l0.6,0.3L42.7,41.6C42.6,41.7,42.5,41.8,42.4,41.8
			L42.4,41.8z"/>
		<path id="XMLID_6152_" fill="#F2AE32" d="M42.3,52L42.3,52c-0.1,0-0.2-0.1-0.3-0.2L15.3,5.6c-0.1-0.1-0.1-0.2,0-0.3l3-5.1l0.6,0.4
			L16,5.5L42.3,51l23.2-40.1l-34.9,0v-0.7l35.5,0c0.1,0,0.2,0.1,0.3,0.2s0.1,0.2,0,0.3L42.6,51.8C42.5,51.9,42.4,52,42.3,52z"/>
		<path id="XMLID_6151_" fill="#F2AE32" d="M48.4,52h-6.1v-0.7h5.9L74.4,5.8l-46.3,0L45.6,36L45,36.3L27.2,5.6
			c-0.1-0.1-0.1-0.2,0-0.3c0.1-0.1,0.2-0.2,0.3-0.2l47.5,0c0.1,0,0.2,0.1,0.3,0.2c0.1,0.1,0.1,0.2,0,0.3L48.7,51.8
			C48.6,51.9,48.5,52,48.4,52z"/>
	</g>
</g>
</svg>
