<?xml version="1.0" encoding="utf-8"?>
<!-- Generator: Adobe Illustrator 19.0.0, SVG Export Plug-In . SVG Version: 6.00 Build 0)  -->
<svg version="1.1" id="Слой_1" xmlns="http://www.w3.org/2000/svg" xmlns:xlink="http://www.w3.org/1999/xlink" x="0px" y="0px"
	 viewBox="0 0 90 80" enable-background="new 0 0 90 80" xml:space="preserve">
<g id="XMLID_6171_">
	<g id="XMLID_6191_">
		<g id="XMLID_6307_">
			<g id="XMLID_6321_">
				<path id="XMLID_6333_" fill="#F2AE32" d="M0.8,74.5c-0.1,0-0.2-0.1-0.3-0.2c-0.1-0.2,0-0.4,0.1-0.5L8,69.7
					c0.2-0.1,0.4,0,0.5,0.1c0.1,0.2,0,0.4-0.1,0.5L1,74.4C1,74.5,0.9,74.5,0.8,74.5z"/>
				<path id="XMLID_6332_" fill="#F2AE32" d="M26.4,73C26.4,73,26.4,73,26.4,73c-0.2,0-0.4-0.2-0.3-0.4l0.4-2.8
					c0-0.2,0.2-0.3,0.4-0.3c0.2,0,0.3,0.2,0.3,0.4l-0.4,2.8C26.7,72.9,26.6,73,26.4,73z"/>
				<g id="XMLID_6330_">
					<path id="XMLID_6331_" fill="#F2AE32" d="M45,78.7c-0.2,0-0.3-0.2-0.3-0.3v-8.4c0-0.2,0.2-0.3,0.3-0.3c0.2,0,0.3,0.2,0.3,0.3
						v8.4C45.3,78.5,45.2,78.7,45,78.7z"/>
				</g>
				<path id="XMLID_6329_" fill="#F2AE32" d="M8.9,74.5c-0.1,0-0.2,0-0.2-0.1c-0.1-0.1-0.1-0.3,0-0.5l4.1-4.2c0.1-0.1,0.3-0.1,0.5,0
					c0.1,0.1,0.1,0.3,0,0.5l-4.1,4.2C9.1,74.4,9,74.5,8.9,74.5z"/>
				<path id="XMLID_6328_" fill="#F2AE32" d="M13.2,76.1c-0.1,0-0.1,0-0.2,0c-0.2-0.1-0.2-0.3-0.1-0.5l3.5-5.8
					c0.1-0.2,0.3-0.2,0.5-0.1c0.2,0.1,0.2,0.3,0.1,0.5l-3.5,5.8C13.4,76,13.3,76.1,13.2,76.1z"/>
				<path id="XMLID_6327_" fill="#F2AE32" d="M30,76.8C30,76.8,29.9,76.8,30,76.8c-0.2,0-0.4-0.2-0.3-0.4l0.6-6.5
					c0-0.2,0.2-0.3,0.4-0.3c0.2,0,0.3,0.2,0.3,0.4l-0.6,6.5C30.3,76.7,30.1,76.8,30,76.8z"/>
				<path id="XMLID_6326_" fill="#F2AE32" d="M34.4,74.7C34.4,74.7,34.3,74.7,34.4,74.7c-0.2,0-0.3-0.2-0.3-0.4l0.3-4.4
					c0-0.2,0.2-0.3,0.4-0.3c0.2,0,0.3,0.2,0.3,0.4l-0.3,4.4C34.7,74.6,34.5,74.7,34.4,74.7z"/>
				<path id="XMLID_6325_" fill="#F2AE32" d="M41.6,75.5C41.6,75.5,41.6,75.5,41.6,75.5c-0.2,0-0.3-0.2-0.3-0.4l0.2-5.2
					c0-0.2,0.2-0.3,0.3-0.3c0.2,0,0.3,0.2,0.3,0.3L42,75.2C42,75.4,41.8,75.5,41.6,75.5z"/>
				<path id="XMLID_6324_" fill="#F2AE32" d="M37.5,79C37.5,79,37.5,79,37.5,79c-0.2,0-0.4-0.2-0.3-0.4l0.8-8.7
					c0-0.2,0.2-0.3,0.4-0.3c0.2,0,0.3,0.2,0.3,0.4l-0.8,8.7C37.8,78.8,37.7,79,37.5,79z"/>
				<path id="XMLID_6323_" fill="#F2AE32" d="M17.8,77.7c0,0-0.1,0-0.1,0c-0.2-0.1-0.3-0.2-0.2-0.4l2.4-7.4c0.1-0.2,0.2-0.3,0.4-0.2
					c0.2,0.1,0.3,0.2,0.2,0.4l-2.4,7.4C18,77.6,17.9,77.7,17.8,77.7z"/>
				<path id="XMLID_6322_" fill="#F2AE32" d="M22.6,75.1C22.6,75.1,22.6,75.1,22.6,75.1c-0.2,0-0.4-0.2-0.3-0.4l0.9-4.8
					c0-0.2,0.2-0.3,0.4-0.3c0.2,0,0.3,0.2,0.3,0.4L23,74.9C22.9,75,22.8,75.1,22.6,75.1z"/>
			</g>
			<g id="XMLID_6308_">
				<path id="XMLID_6320_" fill="#F2AE32" d="M86.4,72.9c-0.1,0-0.1,0-0.2,0l-4.6-2.6c-0.2-0.1-0.2-0.3-0.1-0.5s0.3-0.2,0.5-0.1
					l4.6,2.6c0.2,0.1,0.2,0.3,0.1,0.5C86.7,72.9,86.6,72.9,86.4,72.9z"/>
				<path id="XMLID_6319_" fill="#F2AE32" d="M64.1,78.5c-0.2,0-0.3-0.1-0.3-0.3L62.8,70c0-0.2,0.1-0.4,0.3-0.4
					c0.2,0,0.4,0.1,0.4,0.3l0.9,8.2C64.4,78.3,64.3,78.4,64.1,78.5C64.1,78.5,64.1,78.5,64.1,78.5z"/>
				<g id="XMLID_6317_">
					<path id="XMLID_6318_" fill="#F2AE32" d="M45,80c-0.2,0-0.3-0.2-0.3-0.3v-9.7c0-0.2,0.2-0.3,0.3-0.3c0.2,0,0.3,0.2,0.3,0.3v9.7
						C45.3,79.8,45.2,80,45,80z"/>
				</g>
				<path id="XMLID_6316_" fill="#F2AE32" d="M82.1,75.6c-0.1,0-0.2,0-0.2-0.1l-5.1-5.3c-0.1-0.1-0.1-0.3,0-0.5
					c0.1-0.1,0.3-0.1,0.5,0l5.1,5.3c0.1,0.1,0.1,0.3,0,0.5C82.2,75.5,82.2,75.6,82.1,75.6z"/>
				<path id="XMLID_6315_" fill="#F2AE32" d="M76.8,76.1c-0.1,0-0.2-0.1-0.3-0.2L73,70.1c-0.1-0.2,0-0.4,0.1-0.5
					c0.2-0.1,0.4,0,0.5,0.1l3.5,5.8c0.1,0.2,0,0.4-0.1,0.5C76.9,76.1,76.8,76.1,76.8,76.1z"/>
				<path id="XMLID_6314_" fill="#F2AE32" d="M60,76.8c-0.2,0-0.3-0.1-0.3-0.3L59.1,70c0-0.2,0.1-0.3,0.3-0.4c0.2,0,0.3,0.1,0.4,0.3
					l0.6,6.5C60.4,76.6,60.2,76.8,60,76.8C60,76.8,60,76.8,60,76.8z"/>
				<path id="XMLID_6313_" fill="#F2AE32" d="M55.5,73.6c-0.2,0-0.3-0.1-0.3-0.3L54.9,70c0-0.2,0.1-0.3,0.3-0.4
					c0.2,0,0.3,0.1,0.4,0.3l0.3,3.3C55.9,73.4,55.8,73.5,55.5,73.6C55.6,73.6,55.5,73.6,55.5,73.6z"/>
				<path id="XMLID_6312_" fill="#F2AE32" d="M48.3,74.6c-0.2,0-0.3-0.1-0.3-0.3L47.8,70c0-0.2,0.1-0.3,0.3-0.4
					c0.2,0,0.3,0.1,0.4,0.3l0.2,4.3C48.7,74.4,48.5,74.6,48.3,74.6C48.3,74.6,48.3,74.6,48.3,74.6z"/>
				<path id="XMLID_6311_" fill="#F2AE32" d="M52.2,77.8c-0.2,0-0.3-0.1-0.3-0.3L51.3,70c0-0.2,0.1-0.3,0.3-0.4
					c0.2,0,0.3,0.1,0.4,0.3l0.6,7.5C52.6,77.6,52.4,77.7,52.2,77.8C52.3,77.8,52.2,77.8,52.2,77.8z"/>
				<path id="XMLID_6310_" fill="#F2AE32" d="M72.2,77.7c-0.1,0-0.3-0.1-0.3-0.2l-2.4-7.4c-0.1-0.2,0-0.4,0.2-0.4
					c0.2-0.1,0.4,0,0.4,0.2l2.4,7.4c0.1,0.2,0,0.4-0.2,0.4C72.3,77.6,72.3,77.7,72.2,77.7z"/>
				<path id="XMLID_6309_" fill="#F2AE32" d="M67.4,75.1c-0.2,0-0.3-0.1-0.3-0.3L66.2,70c0-0.2,0.1-0.4,0.3-0.4
					c0.2,0,0.4,0.1,0.4,0.3l0.9,4.8C67.7,74.9,67.6,75.1,67.4,75.1C67.4,75.1,67.4,75.1,67.4,75.1z"/>
			</g>
		</g>
		<path id="XMLID_6306_" fill="#F2AE32" d="M73.3,54.4c-0.1,0-0.3-0.1-0.3-0.2c-0.1-0.2,0-0.4,0.2-0.4l7.5-3.3
			c0.2-0.1,0.4,0,0.4,0.2c0.1,0.2,0,0.4-0.2,0.4l-7.5,3.3C73.4,54.4,73.4,54.4,73.3,54.4z"/>
		<g id="XMLID_6304_">
			<path id="XMLID_6305_" fill="#F2AE32" d="M64.3,38.6c-0.1,0-0.2-0.1-0.3-0.2c-0.1-0.2,0-0.4,0.1-0.5l9.1-5c0.2-0.1,0.4,0,0.5,0.1
				c0.1,0.2,0,0.4-0.1,0.5l-9.1,5C64.4,38.6,64.3,38.6,64.3,38.6z"/>
		</g>
		<path id="XMLID_6303_" fill="#F2AE32" d="M89.2,69.2C89.1,69.2,89.1,69.2,89.2,69.2l-9.5-2.5c-0.2,0-0.3-0.2-0.2-0.4
			c0-0.2,0.2-0.3,0.4-0.2l9.4,2.4c0.2,0,0.3,0.2,0.2,0.4C89.4,69.1,89.3,69.2,89.2,69.2z"/>
		<path id="XMLID_6302_" fill="#F2AE32" d="M85.2,63.3C85.2,63.3,85.2,63.3,85.2,63.3l-6.8-0.1c-0.2,0-0.3-0.2-0.3-0.3
			c0-0.2,0.2-0.3,0.3-0.3c0,0,0,0,0,0l6.8,0.1c0.2,0,0.3,0.2,0.3,0.3C85.5,63.1,85.4,63.3,85.2,63.3z"/>
		<path id="XMLID_6301_" fill="#F2AE32" d="M71.1,50.5c-0.1,0-0.3-0.1-0.3-0.2c-0.1-0.2,0-0.4,0.2-0.4l6.3-2.1
			c0.2-0.1,0.4,0,0.4,0.2c0.1,0.2,0,0.4-0.2,0.4l-6.3,2.1C71.2,50.5,71.2,50.5,71.1,50.5z"/>
		<path id="XMLID_6300_" fill="#F2AE32" d="M69.4,47.5c-0.1,0-0.2-0.1-0.3-0.2c-0.1-0.2,0-0.4,0.2-0.4l6.4-3.1
			c0.2-0.1,0.4,0,0.4,0.2c0.1,0.2,0,0.4-0.2,0.4l-6.4,3.1C69.5,47.5,69.4,47.5,69.4,47.5z"/>
		<path id="XMLID_6299_" fill="#F2AE32" d="M65.8,41.4c-0.1,0-0.2-0.1-0.3-0.2c-0.1-0.2,0-0.4,0.2-0.4l5.3-2.6
			c0.2-0.1,0.4,0,0.4,0.2c0.1,0.2,0,0.4-0.2,0.4L66,41.3C65.9,41.4,65.9,41.4,65.8,41.4z"/>
		<path id="XMLID_6298_" fill="#F2AE32" d="M67.6,44.4c-0.1,0-0.2-0.1-0.3-0.2c-0.1-0.2,0-0.4,0.1-0.5L75,40c0.2-0.1,0.4,0,0.5,0.1
			s0,0.4-0.1,0.5l-7.5,3.8C67.7,44.4,67.7,44.4,67.6,44.4z"/>
		<path id="XMLID_6297_" fill="#F2AE32" d="M76.4,60c-0.2,0-0.3-0.1-0.3-0.3c0-0.2,0.1-0.4,0.3-0.4l4.8-1c0.2,0,0.4,0.1,0.4,0.3
			c0,0.2-0.1,0.4-0.3,0.4L76.4,60C76.4,60,76.4,60,76.4,60z"/>
		<path id="XMLID_6296_" fill="#F2AE32" d="M75,57.3c-0.1,0-0.3-0.1-0.3-0.2c-0.1-0.2,0-0.4,0.2-0.4l4.6-1.7c0.2-0.1,0.4,0,0.4,0.2
			c0.1,0.2,0,0.4-0.2,0.4l-4.6,1.7C75.1,57.3,75,57.3,75,57.3z"/>
		<path id="XMLID_6295_" fill="#F2AE32" d="M55.2,22.9c-0.1,0-0.2,0-0.3-0.1c-0.1-0.1-0.1-0.4,0.1-0.5l8.9-7
			c0.1-0.1,0.4-0.1,0.5,0.1c0.1,0.1,0.1,0.4-0.1,0.5l-8.9,7C55.3,22.9,55.2,22.9,55.2,22.9z"/>
		<path id="XMLID_6294_" fill="#F2AE32" d="M47.8,11.2C47.8,11.2,47.8,11.2,47.8,11.2c-0.3-0.1-0.4-0.3-0.3-0.4L50,2
			c0.1-0.2,0.2-0.3,0.4-0.2c0.2,0.1,0.3,0.2,0.2,0.4L48.1,11C48.1,11.1,48,11.2,47.8,11.2z"/>
		<path id="XMLID_6293_" fill="#F2AE32" d="M50.1,14.1c-0.1,0-0.1,0-0.2,0c-0.2-0.1-0.2-0.3-0.1-0.5l3.9-7.5C53.8,5.9,54,5.9,54.2,6
			c0.2,0.1,0.2,0.3,0.1,0.5l-3.9,7.5C50.3,14,50.2,14.1,50.1,14.1z"/>
		<path id="XMLID_6292_" fill="#F2AE32" d="M58.2,25.1c-0.1,0-0.2-0.1-0.3-0.1c-0.1-0.2-0.1-0.4,0.1-0.5l4.1-2.8
			c0.2-0.1,0.4-0.1,0.5,0.1c0.1,0.2,0.1,0.4-0.1,0.5l-4.1,2.8C58.4,25.1,58.3,25.1,58.2,25.1z"/>
		<path id="XMLID_6291_" fill="#F2AE32" d="M60,29.2c-0.1,0-0.2-0.1-0.3-0.1c-0.1-0.2-0.1-0.4,0.1-0.5l2.8-1.9
			c0.2-0.1,0.4-0.1,0.5,0.1c0.1,0.2,0.1,0.4-0.1,0.5l-2.8,1.9C60.1,29.1,60,29.2,60,29.2z"/>
		<path id="XMLID_6290_" fill="#F2AE32" d="M62.7,35.9c-0.1,0-0.2-0.1-0.3-0.2c-0.1-0.2-0.1-0.4,0.1-0.5l3.4-2.3
			c0.2-0.1,0.4-0.1,0.5,0.1c0.1,0.2,0.1,0.4-0.1,0.5l-3.4,2.3C62.8,35.9,62.7,35.9,62.7,35.9z"/>
		<path id="XMLID_6289_" fill="#F2AE32" d="M60.9,32.8c-0.1,0-0.2-0.1-0.3-0.2c-0.1-0.2,0-0.4,0.1-0.5l7.6-4.5
			c0.2-0.1,0.4,0,0.5,0.1c0.1,0.2,0,0.4-0.1,0.5l-7.6,4.5C61,32.8,61,32.8,60.9,32.8z"/>
		<path id="XMLID_6288_" fill="#F2AE32" d="M51.8,17.1c-0.1,0-0.1,0-0.2-0.1c-0.1-0.1-0.2-0.3-0.1-0.5l4.7-6.2
			c0.1-0.1,0.3-0.2,0.5-0.1c0.1,0.1,0.2,0.3,0.1,0.5L52.1,17C52,17.1,51.9,17.1,51.8,17.1z"/>
		<path id="XMLID_6287_" fill="#F2AE32" d="M53.5,20c-0.1,0-0.2,0-0.2-0.1c-0.1-0.1-0.1-0.3,0-0.5l2.8-2.8c0.1-0.1,0.3-0.1,0.5,0
			c0.1,0.1,0.1,0.3,0,0.5l-2.8,2.8C53.7,20,53.6,20,53.5,20z"/>
		<g id="XMLID_6274_">
			<path id="XMLID_6286_" fill="#F2AE32" d="M0.8,74.5c-0.1,0-0.2-0.1-0.3-0.2c-0.1-0.2,0-0.4,0.1-0.5L8,69.7c0.2-0.1,0.4,0,0.5,0.1
				c0.1,0.2,0,0.4-0.1,0.5L1,74.4C1,74.5,0.9,74.5,0.8,74.5z"/>
			<path id="XMLID_6285_" fill="#F2AE32" d="M17.5,54.1c0,0-0.1,0-0.1,0l-7.5-3.3c-0.2-0.1-0.2-0.3-0.2-0.4c0.1-0.2,0.3-0.2,0.4-0.2
				l7.5,3.3c0.2,0.1,0.2,0.3,0.2,0.4C17.7,54,17.6,54.1,17.5,54.1z"/>
			<g id="XMLID_6283_">
				<path id="XMLID_6284_" fill="#F2AE32" d="M26.6,38.4c-0.1,0-0.1,0-0.2,0l-7.3-4.2c-0.2-0.1-0.2-0.3-0.1-0.5
					c0.1-0.2,0.3-0.2,0.5-0.1l7.3,4.2c0.2,0.1,0.2,0.3,0.1,0.5C26.8,38.3,26.7,38.4,26.6,38.4z"/>
			</g>
			<path id="XMLID_6282_" fill="#F2AE32" d="M2,68.5c-0.1,0-0.3-0.1-0.3-0.2c-0.1-0.2,0.1-0.4,0.2-0.4l8.6-2.5
				c0.2-0.1,0.4,0.1,0.4,0.2c0.1,0.2-0.1,0.4-0.2,0.4L2,68.5C2,68.5,2,68.5,2,68.5z"/>
			<path id="XMLID_6281_" fill="#F2AE32" d="M5.6,63c-0.2,0-0.3-0.1-0.3-0.3c0-0.2,0.1-0.3,0.3-0.3l6.8-0.1c0,0,0,0,0,0
				c0.2,0,0.3,0.1,0.3,0.3c0,0.2-0.1,0.3-0.3,0.3L5.6,63C5.6,63,5.6,63,5.6,63z"/>
			<path id="XMLID_6280_" fill="#F2AE32" d="M19.3,50.9c0,0-0.1,0-0.1,0L15,48.9c-0.2-0.1-0.2-0.3-0.2-0.4c0.1-0.2,0.3-0.2,0.4-0.2
				l4.2,1.9c0.2,0.1,0.2,0.3,0.2,0.4C19.6,50.8,19.5,50.9,19.3,50.9z"/>
			<path id="XMLID_6279_" fill="#F2AE32" d="M21.4,47.3c0,0-0.1,0-0.1,0l-4-1.9c-0.2-0.1-0.2-0.3-0.2-0.4c0.1-0.2,0.3-0.2,0.4-0.2
				l4,1.9c0.2,0.1,0.2,0.3,0.2,0.4C21.7,47.2,21.5,47.3,21.4,47.3z"/>
			<path id="XMLID_6278_" fill="#F2AE32" d="M25,41.1c-0.1,0-0.1,0-0.2,0l-6.4-3.2c-0.2-0.1-0.2-0.3-0.2-0.5
				c0.1-0.2,0.3-0.2,0.5-0.2l6.4,3.2c0.2,0.1,0.2,0.3,0.2,0.5C25.2,41,25.1,41.1,25,41.1z"/>
			<path id="XMLID_6277_" fill="#F2AE32" d="M23.2,44.1c0,0-0.1,0-0.1,0l-9.3-3.7c-0.2-0.1-0.3-0.3-0.2-0.4c0.1-0.2,0.3-0.3,0.4-0.2
				l9.3,3.7c0.2,0.1,0.3,0.3,0.2,0.4C23.5,44.1,23.4,44.1,23.2,44.1z"/>
			<path id="XMLID_6276_" fill="#F2AE32" d="M14.2,59.9C14.1,59.9,14.1,59.9,14.2,59.9l-7.7-1.6c-0.2,0-0.3-0.2-0.3-0.4
				c0-0.2,0.2-0.3,0.4-0.3l7.6,1.6c0.2,0,0.3,0.2,0.3,0.4C14.4,59.8,14.3,59.9,14.2,59.9z"/>
			<path id="XMLID_6275_" fill="#F2AE32" d="M15.8,57c0,0-0.1,0-0.1,0l-4.6-1.7c-0.2-0.1-0.3-0.3-0.2-0.4c0.1-0.2,0.3-0.3,0.4-0.2
				l4.6,1.7c0.2,0.1,0.3,0.3,0.2,0.4C16.1,56.9,16,57,15.8,57z"/>
		</g>
		<g id="XMLID_6261_">
			<path id="XMLID_6273_" fill="#F2AE32" d="M45,10.5c-0.2,0-0.3-0.2-0.3-0.3V0.3C44.7,0.2,44.8,0,45,0c0.2,0,0.3,0.2,0.3,0.3v9.8
				C45.3,10.3,45.2,10.5,45,10.5z"/>
			<path id="XMLID_6272_" fill="#F2AE32" d="M35.7,22.6c-0.1,0-0.1,0-0.2-0.1l-6.6-4.9c-0.1-0.1-0.2-0.3-0.1-0.5
				c0.1-0.1,0.3-0.2,0.5-0.1l6.6,4.9c0.1,0.1,0.2,0.3,0.1,0.5C35.9,22.6,35.8,22.6,35.7,22.6z"/>
			<g id="XMLID_6270_">
				<path id="XMLID_6271_" fill="#F2AE32" d="M26.6,38.4c-0.1,0-0.1,0-0.2,0l-7.3-4.2c-0.2-0.1-0.2-0.3-0.1-0.5
					c0.1-0.2,0.3-0.2,0.5-0.1l7.3,4.2c0.2,0.1,0.2,0.3,0.1,0.5C26.8,38.3,26.7,38.4,26.6,38.4z"/>
			</g>
			<path id="XMLID_6269_" fill="#F2AE32" d="M42.5,10.7c-0.2,0-0.3-0.1-0.3-0.3l-2.1-8.2c0-0.2,0.1-0.4,0.2-0.4
				c0.2,0,0.4,0.1,0.4,0.2l2.1,8.2C42.9,10.4,42.8,10.6,42.5,10.7C42.6,10.7,42.6,10.7,42.5,10.7z"/>
			<path id="XMLID_6268_" fill="#F2AE32" d="M40.7,13.8c-0.1,0-0.2-0.1-0.3-0.2l-3.3-5.9c-0.1-0.2,0-0.4,0.1-0.5
				c0.2-0.1,0.4,0,0.5,0.1l3.3,5.9c0.1,0.2,0,0.4-0.1,0.5C40.8,13.8,40.8,13.8,40.7,13.8z"/>
			<path id="XMLID_6267_" fill="#F2AE32" d="M33.8,25.9c-0.1,0-0.1,0-0.2-0.1L28.2,22c-0.2-0.1-0.2-0.3-0.1-0.5
				c0.1-0.2,0.3-0.2,0.5-0.1l5.4,3.8c0.2,0.1,0.2,0.3,0.1,0.5C34,25.8,33.9,25.9,33.8,25.9z"/>
			<path id="XMLID_6266_" fill="#F2AE32" d="M31.7,29.5c-0.1,0-0.1,0-0.2-0.1l-3.7-2.5c-0.2-0.1-0.2-0.3-0.1-0.5
				c0.1-0.2,0.3-0.2,0.5-0.1l3.7,2.5c0.2,0.1,0.2,0.3,0.1,0.5C31.9,29.4,31.8,29.5,31.7,29.5z"/>
			<path id="XMLID_6265_" fill="#F2AE32" d="M28.1,35.6c-0.1,0-0.1,0-0.2-0.1l-6-4c-0.2-0.1-0.2-0.3-0.1-0.5
				c0.1-0.2,0.3-0.2,0.5-0.1l6,4c0.2,0.1,0.2,0.3,0.1,0.5C28.4,35.6,28.2,35.6,28.1,35.6z"/>
			<path id="XMLID_6264_" fill="#F2AE32" d="M29.9,32.6c-0.1,0-0.1,0-0.2-0.1l-6.2-4.2c-0.2-0.1-0.2-0.3-0.1-0.5
				c0.1-0.2,0.3-0.2,0.5-0.1l6.2,4.2c0.2,0.1,0.2,0.3,0.1,0.5C30.1,32.5,30,32.6,29.9,32.6z"/>
			<path id="XMLID_6263_" fill="#F2AE32" d="M39,16.9c-0.1,0-0.2,0-0.3-0.1L33.6,11c-0.1-0.1-0.1-0.4,0-0.5c0.1-0.1,0.4-0.1,0.5,0
				l5.2,5.8c0.1,0.1,0.1,0.4,0,0.5C39.1,16.8,39.1,16.9,39,16.9z"/>
			<path id="XMLID_6262_" fill="#F2AE32" d="M37.3,19.7c-0.1,0-0.2,0-0.2-0.1l-3.8-3.2c-0.1-0.1-0.2-0.3,0-0.5
				c0.1-0.1,0.3-0.2,0.5,0l3.8,3.2c0.1,0.1,0.2,0.3,0,0.5C37.5,19.7,37.4,19.7,37.3,19.7z"/>
		</g>
	</g>
	<g id="XMLID_6175_">
		<g id="XMLID_6178_">
			<path id="XMLID_6190_" fill="#F2AE32" d="M38.9,66.5c-0.2,0-0.3-0.2-0.3-0.3v-4.7c-1.1-0.4-5.4-2.4-5-10.8c0.1-2.2,0-5.6-0.4-6.2
				c-0.3-0.5-0.4-2.2-0.6-4.8c-0.1-1.2-0.2-2.4-0.3-3c-0.1-0.3-0.1-0.5-0.2-0.8c-0.2-0.7-0.5-1.6,0.3-1.9c0.9-0.3,2.9,0.8,3.8,2.9
				c0.9,2,1.3,4.2,1.3,5c0,0.1,0,0.2,0,0.3c-0.1,0.6-0.4,1.1-0.4,1.2c-0.1,0.2-0.3,0.2-0.5,0.1c-0.2-0.1-0.2-0.3-0.1-0.5
				c0,0,0.2-0.5,0.3-1c0-0.1,0-0.2,0-0.2c0.1-0.6-0.4-2.7-1.2-4.7c-0.8-1.9-2.5-2.7-3-2.5c-0.2,0.1-0.1,0.5,0.1,1.1
				c0.1,0.3,0.2,0.6,0.2,0.9c0.1,0.6,0.2,1.7,0.3,3c0.1,1.7,0.3,4.1,0.5,4.5c0.6,1.1,0.5,6.5,0.5,6.6c-0.4,9,4.5,10.2,4.8,10.2
				c0.2,0,0.3,0.2,0.3,0.3v5C39.3,66.3,39.1,66.5,38.9,66.5z"/>
			<path id="XMLID_6189_" fill="#F2AE32" d="M45.2,52.9c-0.2,0-0.3-0.1-0.3-0.3C44,49.3,40.6,48,40.6,48c-0.1,0-0.2-0.2-0.2-0.3
				c0,0-0.1-1.2-0.8-2.6c-0.7-1.3-2.6-3-2.7-3c-0.1-0.1-0.2-0.3,0-0.5c0.1-0.1,0.3-0.2,0.5,0c0.1,0.1,2.1,1.7,2.8,3.2
				c0.6,1.1,0.8,2.2,0.9,2.6c0.8,0.3,3.7,1.7,4.5,5.1C45.5,52.7,45.4,52.9,45.2,52.9C45.2,52.9,45.2,52.9,45.2,52.9z"/>
			<path id="XMLID_6188_" fill="#F2AE32" d="M38.3,43.4c0,0-0.1-4.4-0.2-6.4c0-0.3,0-0.9-0.1-1.6c-0.4-6-0.6-12.4,0.8-14
				c0.2-0.3,0.5-0.4,0.9-0.4c0,0,0,0,0,0c1.4,0,1.9,3.3,2.2,6.9c0,0.2,0,0.4,0,0.5c0.1,1.1,0.9,10.2,0.9,10.6c0,0.2-0.1,0.3-0.3,0.4
				c-0.2,0-0.3-0.1-0.4-0.3c0-0.1-0.8-9.4-0.9-10.6c0-0.1,0-0.3,0-0.5c-0.2-1.9-0.6-6.3-1.6-6.3c0,0,0,0,0,0c-0.1,0-0.2,0-0.4,0.2
				c-1.5,1.6-0.9,10.3-0.7,13.5c0,0.7,0.1,1.3,0.1,1.6c0.1,2.1,0.2,6.4,0.2,6.4L38.3,43.4z"/>
			<path id="XMLID_6187_" fill="#F2AE32" d="M47.6,39.1C47.6,39.1,47.6,39.1,47.6,39.1c-0.2,0-0.4-0.2-0.3-0.4c0,0,0.1-1,0.1-3
				c0-0.3,0-0.9,0-1.6c0.1-3.2,0.3-11.8-1.3-13.3c-0.2-0.2-0.3-0.2-0.4-0.2c-1.5,0.1-1.5,4.5-1.5,6.1c0,0.4,0,0.6,0,0.8
				c-0.1,1.1-0.5,10.8-0.5,10.9c0,0.2-0.2,0.3-0.3,0.3c-0.2,0-0.3-0.2-0.3-0.3c0-0.1,0.4-9.8,0.5-10.9c0-0.2,0-0.4,0-0.8
				c0-2.3,0-6.7,2.1-6.8c0.3,0,0.6,0.1,0.9,0.4c1.5,1.5,1.6,7.8,1.5,13.8c0,0.7,0,1.3,0,1.6c0,2.1-0.1,3.1-0.1,3.1
				C47.9,39,47.8,39.1,47.6,39.1z"/>
			<path id="XMLID_6186_" fill="#F2AE32" d="M52.6,41C52.6,41,52.5,41,52.6,41c-0.2,0-0.4-0.2-0.3-0.4c0,0,0.2-1.3,0.3-3.3
				c0-0.2,0-0.4,0-0.7c0.3-8.1-0.1-12.9-1.2-14c-0.1-0.1-0.3-0.2-0.4-0.2c0,0,0,0,0,0c-1,0-1.1,4.3-1.2,6.2c0,0.3,0,0.6,0,0.9
				c-0.1,3.2-0.8,9.6-0.8,9.7c0,0.2-0.2,0.3-0.4,0.3c-0.2,0-0.3-0.2-0.3-0.4c0-0.1,0.7-6.4,0.8-9.6c0-0.3,0-0.6,0-0.9
				c0.1-3.7,0.3-6.8,1.8-6.8c0,0,0,0,0,0c0.3,0,0.6,0.2,0.9,0.4c1.7,1.8,1.6,9.1,1.4,14.5c0,0.3,0,0.6,0,0.7
				c-0.1,2.1-0.3,3.4-0.3,3.4C52.9,40.9,52.7,41,52.6,41z"/>
			<path id="XMLID_6185_" fill="#F2AE32" d="M40.7,40.2c-0.1,0-0.2-0.1-0.3-0.2c-0.1-0.2,0-0.4,0.1-0.5c0.1,0,2.2-1.2,3.9-1.2
				c0.2,0,0.3,0.1,0.3,0.3c0,0.2-0.1,0.3-0.3,0.3c-1.5,0-3.5,1.1-3.6,1.1C40.8,40.2,40.7,40.2,40.7,40.2z"/>
			<path id="XMLID_6184_" fill="#F2AE32" d="M54.7,42.9c-0.1,0-0.2-0.1-0.3-0.2c0,0-0.3-0.3-1.7-1.5c-1.4-1.1-4.7-2.2-6.1-2.2
				c-0.2,0-0.3-0.2-0.3-0.3c0-0.2,0.2-0.3,0.3-0.3c1.4,0.1,4.9,1.1,6.5,2.4c1.5,1.2,1.8,1.6,1.8,1.6c0.1,0.2,0.1,0.4-0.1,0.5
				C54.8,42.9,54.7,42.9,54.7,42.9z"/>
			<path id="XMLID_6183_" fill="#F2AE32" d="M50.3,62.1c-1.1,0-1.9-0.3-2-0.3c-0.2-0.1-0.3-0.3-0.2-0.4c0.1-0.2,0.3-0.3,0.4-0.2
				c0.1,0,3,1,5.3-1.1c1.9-1.6,2.2-4.4,2.6-9.9c0.1-0.9,0.1-2.4,0.2-3.9c0-1.2,0.1-2.3,0.1-3c0-0.5,0.1-1.1,0.1-1.8
				c0.3-3.2,1-13-0.7-13.1c-0.3,0-0.5,0-0.7,0.2c-0.5,0.4-0.8,1.6-0.9,4c-0.2,3.8-0.6,8.4-0.6,8.5c0,0.2-0.2,0.3-0.4,0.3
				c-0.2,0-0.3-0.2-0.3-0.4c0,0,0.4-4.7,0.6-8.5c0.2-2.6,0.5-3.9,1.1-4.5c0.3-0.3,0.7-0.4,1.2-0.3c2.2,0.2,1.9,7,1.3,13.9
				c-0.1,0.7-0.1,1.3-0.1,1.7c0,0.7-0.1,1.8-0.1,3c0,1.5-0.1,3-0.2,4c-0.5,5.5-0.8,8.5-2.9,10.3C52.9,61.8,51.4,62.1,50.3,62.1z"/>
			<path id="XMLID_6182_" fill="#F2AE32" d="M51.7,32.9c0,0-0.1,0-0.1,0c-0.5-0.2-1.2-0.1-1.2-0.1c-0.2,0-0.4-0.1-0.4-0.3
				c0-0.2,0.1-0.4,0.3-0.4c0,0,0.9-0.1,1.5,0.1c0.2,0.1,0.3,0.3,0.2,0.4C51.9,32.9,51.8,32.9,51.7,32.9z"/>
			<path id="XMLID_6181_" fill="#F2AE32" d="M45.1,32.9c-0.2,0-0.3-0.1-0.3-0.3c0-0.2,0.1-0.4,0.3-0.4c0,0,0.8-0.2,1.5,0
				c0.2,0.1,0.3,0.2,0.2,0.4c-0.1,0.2-0.2,0.3-0.4,0.2C45.9,32.7,45.2,32.9,45.1,32.9C45.2,32.9,45.1,32.9,45.1,32.9z"/>
			<path id="XMLID_6180_" fill="#F2AE32" d="M39.6,33.4c-0.1,0-0.3-0.1-0.3-0.2c-0.1-0.2,0-0.4,0.2-0.4c0,0,0.8-0.3,1.5-0.2
				c0.2,0,0.3,0.2,0.3,0.4c0,0.2-0.2,0.3-0.4,0.3c-0.4-0.1-1,0.1-1.2,0.2C39.7,33.4,39.6,33.4,39.6,33.4z"/>
			<path id="XMLID_6179_" fill="#F2AE32" d="M52.3,66.6H38.9c-0.2,0-0.3-0.2-0.3-0.3s0.2-0.3,0.3-0.3h13v-4.4c0-0.2,0.2-0.3,0.3-0.3
				c0.2,0,0.3,0.2,0.3,0.3v4.7C52.6,66.5,52.5,66.6,52.3,66.6z"/>
		</g>
		<path id="XMLID_6177_" fill="#F2AE32" d="M42.6,19.2c-0.1,0-0.1,0-0.2,0c-0.2-0.1-0.2-0.3-0.1-0.5l2.3-4c0.1-0.2,0.5-0.2,0.6,0
			l1,1.8c0.1,0.2,0,0.4-0.1,0.5c-0.2,0.1-0.4,0-0.5-0.1l-0.7-1.3l-2,3.5C42.8,19.2,42.7,19.2,42.6,19.2z"/>
		<path id="XMLID_6176_" fill="#F2AE32" d="M74.6,66.6H15.2c-0.1,0-0.2-0.1-0.3-0.2c-0.1-0.1-0.1-0.2,0-0.3l14.8-25.7
			c0.1-0.2,0.3-0.2,0.5-0.1c0.2,0.1,0.2,0.3,0.1,0.5L15.8,65.9H74L59.5,40.8c-0.1-0.2,0-0.4,0.1-0.5c0.2-0.1,0.4,0,0.5,0.1
			l14.8,25.6c0.1,0.1,0.1,0.2,0,0.3C74.8,66.6,74.7,66.6,74.6,66.6z"/>
	</g>
	<g id="XMLID_6172_">
		<path id="XMLID_6174_" fill="#F2AE32" d="M33.3,61.6h-9.6c-0.1,0-0.2-0.1-0.3-0.2c-0.1-0.1-0.1-0.2,0-0.3l7.7-13.3
			c0.1-0.2,0.3-0.2,0.5-0.1c0.2,0.1,0.2,0.3,0.1,0.5l-7.4,12.8h9c0.2,0,0.3,0.2,0.3,0.3S33.5,61.6,33.3,61.6z"/>
		<path id="XMLID_6173_" fill="#F2AE32" d="M66,61.6h-9.2c-0.2,0-0.3-0.2-0.3-0.3s0.2-0.3,0.3-0.3h8.6l-7-12.1
			c-0.1-0.2,0-0.4,0.1-0.5c0.2-0.1,0.4,0,0.5,0.1l7.3,12.6c0.1,0.1,0.1,0.2,0,0.3C66.3,61.5,66.2,61.6,66,61.6z"/>
	</g>
</g>
</svg>
