<?xml version="1.0" encoding="utf-8"?>
<!-- Generator: Adobe Illustrator 19.0.0, SVG Export Plug-In . SVG Version: 6.00 Build 0)  -->
<svg version="1.1" id="Слой_1" xmlns="http://www.w3.org/2000/svg" xmlns:xlink="http://www.w3.org/1999/xlink" x="0px" y="0px"
	 viewBox="0 0 80 80" enable-background="new 0 0 80 80" xml:space="preserve">
<g id="XMLID_5956_">
	<path id="XMLID_6147_" fill="#F2AE32" d="M40,80C17.9,80,0,62.1,0,40S17.9,0,40,0s40,17.9,40,40S62.1,80,40,80z M40,0.8
		C18.4,0.8,0.8,18.4,0.8,40S18.4,79.2,40,79.2S79.2,61.6,79.2,40S61.6,0.8,40,0.8z"/>
	<path id="XMLID_6144_" fill="#F2AE32" d="M40,77.5C19.3,77.5,2.5,60.7,2.5,40S19.3,2.5,40,2.5S77.5,19.3,77.5,40S60.7,77.5,40,77.5
		z M40,3.3C19.8,3.3,3.3,19.8,3.3,40S19.8,76.7,40,76.7S76.7,60.2,76.7,40S60.2,3.3,40,3.3z"/>
	<path id="XMLID_6140_" fill="#F2AE32" d="M40,70.7C23.1,70.7,9.3,56.9,9.3,40S23.1,9.3,40,9.3S70.7,23.1,70.7,40S56.9,70.7,40,70.7
		z M40,10.1c-16.5,0-29.9,13.4-29.9,29.9S23.5,69.9,40,69.9S69.9,56.5,69.9,40S56.5,10.1,40,10.1z"/>
	<path id="XMLID_6137_" fill="#F2AE32" d="M40,52.9c-7.1,0-12.9-5.8-12.9-12.9S32.9,27.1,40,27.1S52.9,32.9,52.9,40
		S47.1,52.9,40,52.9z M40,27.9c-6.7,0-12.1,5.4-12.1,12.1S33.3,52.1,40,52.1S52.1,46.7,52.1,40S46.7,27.9,40,27.9z"/>
	<path id="XMLID_6134_" fill="#F2AE32" d="M40,44.4c-2.4,0-4.4-2-4.4-4.4s2-4.4,4.4-4.4s4.4,2,4.4,4.4S42.4,44.4,40,44.4z M40,36.4
		c-2,0-3.6,1.6-3.6,3.6s1.6,3.6,3.6,3.6s3.6-1.6,3.6-3.6S42,36.4,40,36.4z"/>
	<g id="XMLID_5957_">
		<g id="XMLID_6007_">
			<g id="XMLID_6118_">
				<path id="XMLID_6133_" fill="#F2AE32" d="M24.9,14.2c-0.1,0-0.3-0.1-0.3-0.2l-3.4-5.9c-0.1-0.2,0-0.4,0.1-0.5
					c0.2-0.1,0.4,0,0.5,0.1l3.4,5.9c0.1,0.2,0,0.4-0.1,0.5C25,14.1,24.9,14.2,24.9,14.2z"/>
				<path id="XMLID_6130_" fill="#F2AE32" d="M40,7.6c-0.8,0-1.4-0.6-1.4-1.4s0.6-1.4,1.4-1.4s1.4,0.6,1.4,1.4S40.8,7.6,40,7.6z
					 M40,5.5c-0.4,0-0.6,0.3-0.6,0.6s0.3,0.6,0.6,0.6s0.6-0.3,0.6-0.6S40.4,5.5,40,5.5z"/>
				<g id="XMLID_6119_">
					<path id="XMLID_6127_" fill="#F2AE32" d="M42.1,18.9h-4.3c-1.2,0-2.3-1-2.3-2.3c0-1.2,1-2.3,2.3-2.3h4.3c1.2,0,2.3,1,2.3,2.3
						C44.4,17.9,43.4,18.9,42.1,18.9z M37.9,15.1c-0.8,0-1.5,0.7-1.5,1.5c0,0.8,0.7,1.5,1.5,1.5h4.3c0.8,0,1.5-0.7,1.5-1.5
						c0-0.8-0.7-1.5-1.5-1.5H37.9z"/>
					<g id="XMLID_6120_">
						<g id="XMLID_6124_">
							<path id="XMLID_6126_" fill="#F2AE32" d="M37.7,15c-0.2,0-0.4-0.2-0.4-0.4c-0.2-2.5-2-4.1-2.1-4.1c-0.2-0.1-0.2-0.4,0-0.6
								c0.1-0.2,0.4-0.2,0.6,0c0.1,0.1,2.1,1.9,2.3,4.6C38.1,14.8,38,15,37.7,15C37.7,15,37.7,15,37.7,15z"/>
							<path id="XMLID_6125_" fill="#F2AE32" d="M35.9,28.6c-0.1,0-0.2-0.1-0.3-0.2c-0.1-0.2-0.1-0.4,0.1-0.5c0,0,1.1-0.9,1.6-2.9
								c0.6-2.4,0.3-6.4,0.2-6.4c0-0.2,0.1-0.4,0.4-0.4c0.2,0,0.4,0.1,0.4,0.4c0,0.2,0.3,4.1-0.3,6.6c-0.5,2.3-1.8,3.3-1.9,3.3
								C36.1,28.6,36,28.6,35.9,28.6z"/>
						</g>
						<g id="XMLID_6121_">
							<path id="XMLID_6123_" fill="#F2AE32" d="M42.3,15C42.3,15,42.3,15,42.3,15c-0.3,0-0.4-0.2-0.4-0.4c0.3-2.8,2.2-4.6,2.3-4.6
								c0.2-0.1,0.4-0.1,0.6,0c0.1,0.2,0.1,0.4,0,0.6c0,0-1.8,1.7-2.1,4.1C42.7,14.8,42.5,15,42.3,15z"/>
							<path id="XMLID_6122_" fill="#F2AE32" d="M44.1,28.6c-0.1,0-0.2,0-0.2-0.1c-0.1,0-1.4-1.1-1.9-3.3c-0.6-2.5-0.3-6.5-0.3-6.6
								c0-0.2,0.2-0.4,0.4-0.4c0.2,0,0.4,0.2,0.4,0.4c0,0-0.3,4,0.2,6.4c0.5,2,1.6,2.9,1.6,2.9c0.2,0.1,0.2,0.4,0.1,0.5
								C44.3,28.6,44.2,28.6,44.1,28.6z"/>
						</g>
					</g>
				</g>
			</g>
			<g id="XMLID_6027_">
				<path id="XMLID_6117_" fill="#F2AE32" d="M9.7,40.4H2.9c-0.2,0-0.4-0.2-0.4-0.4s0.2-0.4,0.4-0.4h6.8c0.2,0,0.4,0.2,0.4,0.4
					S9.9,40.4,9.7,40.4z"/>
				<path id="XMLID_6114_" fill="#F2AE32" d="M10.7,24.5c-0.2,0-0.5-0.1-0.7-0.2c-0.3-0.2-0.6-0.5-0.7-0.9s0-0.8,0.1-1.1
					c0.3-0.4,0.7-0.7,1.2-0.7c0.2,0,0.5,0.1,0.7,0.2c0.3,0.2,0.6,0.5,0.7,0.9c0.1,0.4,0,0.8-0.1,1.1C11.7,24.2,11.2,24.5,10.7,24.5z
					 M10.7,22.5c-0.2,0-0.4,0.1-0.6,0.3c-0.1,0.1-0.1,0.3-0.1,0.5c0,0.2,0.2,0.3,0.3,0.4c0.3,0.2,0.7,0.1,0.9-0.2
					c0.1-0.1,0.1-0.3,0.1-0.5c0-0.2-0.2-0.3-0.3-0.4C10.9,22.5,10.8,22.5,10.7,22.5z"/>
				<g id="XMLID_6032_">
					<path id="XMLID_6111_" fill="#F2AE32" d="M18.7,32.4L18.7,32.4c-0.4,0-0.8-0.1-1.1-0.3c-0.5-0.3-0.9-0.8-1.1-1.4
						c-0.2-0.6-0.1-1.2,0.2-1.7l2.1-3.7c0.4-0.7,1.2-1.1,2-1.1c0.4,0,0.8,0.1,1.1,0.3c0.5,0.3,0.9,0.8,1.1,1.4
						c0.2,0.6,0.1,1.2-0.2,1.7l-2.1,3.7C20.2,32,19.5,32.4,18.7,32.4z M20.8,25c-0.5,0-1,0.3-1.3,0.7l-2.1,3.7
						c-0.2,0.3-0.2,0.7-0.1,1.1c0.1,0.4,0.3,0.7,0.7,0.9c0.2,0.1,0.5,0.2,0.7,0.2h0c0.5,0,1-0.3,1.3-0.7l2.1-3.7
						c0.2-0.3,0.2-0.7,0.1-1.1c-0.1-0.4-0.3-0.7-0.7-0.9C21.3,25,21.1,25,20.8,25z"/>
					<g id="XMLID_6034_">
						<g id="XMLID_6038_">
							<path id="XMLID_6042_" fill="#F2AE32" d="M16.9,29.7c-0.1,0-0.1,0-0.2,0c-2.3-1-4.6-0.3-4.6-0.3c-0.2,0.1-0.4,0-0.5-0.3
								c-0.1-0.2,0-0.4,0.3-0.5c0.1,0,2.6-0.8,5.2,0.3c0.2,0.1,0.3,0.3,0.2,0.5C17.2,29.6,17,29.7,16.9,29.7z"/>
							<path id="XMLID_6039_" fill="#F2AE32" d="M27.8,38.1c-0.2,0-0.4-0.1-0.4-0.3c0,0-0.2-1.4-1.7-2.8c-1.8-1.7-5.4-3.4-5.4-3.4
								c-0.2-0.1-0.3-0.3-0.2-0.5c0.1-0.2,0.3-0.3,0.5-0.2c0.2,0.1,3.7,1.8,5.6,3.5c1.7,1.6,1.9,3.2,1.9,3.3
								C28.2,37.8,28,38,27.8,38.1C27.8,38,27.8,38.1,27.8,38.1z"/>
						</g>
						<g id="XMLID_6035_">
							<path id="XMLID_6037_" fill="#F2AE32" d="M19.2,25.7c-0.1,0-0.2,0-0.2-0.1c-2.3-1.6-2.8-4.2-2.9-4.3c0-0.2,0.1-0.4,0.3-0.5
								c0.2,0,0.4,0.1,0.5,0.3c0,0,0.5,2.4,2.5,3.9c0.2,0.1,0.2,0.4,0.1,0.5C19.4,25.7,19.3,25.7,19.2,25.7z"/>
							<path id="XMLID_6036_" fill="#F2AE32" d="M30.2,31.2c-0.6,0-1.3-0.1-2-0.3c-2.5-0.8-5.7-3-5.9-3.1c-0.2-0.1-0.2-0.4-0.1-0.5
								c0.1-0.2,0.4-0.2,0.5-0.1c0,0,3.3,2.3,5.7,3c1.9,0.6,3.3,0.1,3.3,0.1c0.2-0.1,0.4,0,0.5,0.2c0.1,0.2,0,0.4-0.2,0.5
								C32,30.9,31.3,31.2,30.2,31.2z"/>
						</g>
					</g>
				</g>
			</g>
			<g id="XMLID_6008_">
				<path id="XMLID_6023_" fill="#F2AE32" d="M21.5,72.5c-0.1,0-0.1,0-0.2-0.1c-0.2-0.1-0.3-0.3-0.1-0.5l3.4-5.9
					c0.1-0.2,0.3-0.3,0.5-0.1c0.2,0.1,0.3,0.3,0.1,0.5l-3.4,5.9C21.7,72.4,21.6,72.5,21.5,72.5z"/>
				<path id="XMLID_6020_" fill="#F2AE32" d="M10.7,58.3c-0.5,0-1-0.3-1.2-0.7c-0.2-0.3-0.2-0.7-0.1-1.1s0.3-0.7,0.7-0.9
					c0.2-0.1,0.5-0.2,0.7-0.2c0.5,0,1,0.3,1.2,0.7c0.2,0.3,0.2,0.7,0.1,1.1c-0.1,0.4-0.3,0.7-0.7,0.9C11.2,58.3,11,58.3,10.7,58.3z
					 M10.7,56.3c-0.1,0-0.2,0-0.3,0.1c-0.1,0.1-0.3,0.2-0.3,0.4c0,0.2,0,0.3,0.1,0.5c0.2,0.3,0.6,0.4,0.9,0.2
					c0.1-0.1,0.3-0.2,0.3-0.4c0-0.2,0-0.3-0.1-0.5C11.2,56.4,10.9,56.3,10.7,56.3z"/>
				<g id="XMLID_6009_">
					<path id="XMLID_6017_" fill="#F2AE32" d="M20.8,55.8L20.8,55.8c-0.8,0-1.6-0.4-2-1.1L16.7,51c-0.3-0.5-0.4-1.1-0.2-1.7
						c0.2-0.6,0.5-1.1,1.1-1.4c0.3-0.2,0.7-0.3,1.1-0.3c0.8,0,1.6,0.4,2,1.1l2.1,3.7c0.3,0.5,0.4,1.1,0.2,1.7
						c-0.2,0.6-0.5,1.1-1.1,1.4C21.6,55.7,21.2,55.8,20.8,55.8z M18.7,48.4c-0.3,0-0.5,0.1-0.7,0.2c-0.3,0.2-0.6,0.5-0.7,0.9
						s-0.1,0.8,0.1,1.1l2.1,3.7c0.3,0.5,0.8,0.7,1.3,0.7h0c0.3,0,0.5-0.1,0.7-0.2c0.3-0.2,0.6-0.5,0.7-0.9s0.1-0.8-0.1-1.1L20,49.1
						C19.7,48.7,19.2,48.4,18.7,48.4z"/>
					<g id="XMLID_6010_">
						<g id="XMLID_6014_">
							<path id="XMLID_6016_" fill="#F2AE32" d="M16.5,59.2C16.4,59.2,16.4,59.2,16.5,59.2c-0.3-0.1-0.4-0.3-0.4-0.5
								c0-0.1,0.6-2.7,2.9-4.3c0.2-0.1,0.4-0.1,0.5,0.1c0.1,0.2,0.1,0.4-0.1,0.5c-2,1.4-2.5,3.8-2.5,3.9
								C16.8,59,16.6,59.2,16.5,59.2z"/>
							<path id="XMLID_6015_" fill="#F2AE32" d="M22.5,52.9c-0.1,0-0.2-0.1-0.3-0.2c-0.1-0.2-0.1-0.4,0.1-0.5
								c0.1-0.1,3.4-2.3,5.9-3.1c2.2-0.7,3.8-0.1,3.8,0c0.2,0.1,0.3,0.3,0.2,0.5c-0.1,0.2-0.3,0.3-0.5,0.2c0,0-1.4-0.5-3.3,0.1
								c-2.4,0.7-5.6,3-5.7,3C22.7,52.9,22.6,52.9,22.5,52.9z"/>
						</g>
						<g id="XMLID_6011_">
							<path id="XMLID_6013_" fill="#F2AE32" d="M14.1,51.7c-1.2,0-2.1-0.3-2.2-0.3c-0.2-0.1-0.3-0.3-0.3-0.5s0.3-0.3,0.5-0.3
								c0,0,2.4,0.7,4.6-0.3c0.2-0.1,0.4,0,0.5,0.2c0.1,0.2,0,0.4-0.2,0.5C16,51.5,14.9,51.7,14.1,51.7z"/>
							<path id="XMLID_6012_" fill="#F2AE32" d="M20.4,49.3c-0.1,0-0.3-0.1-0.4-0.2c-0.1-0.2,0-0.4,0.2-0.5c0,0,3.6-1.7,5.4-3.4
								c1.5-1.4,1.7-2.8,1.7-2.8c0-0.2,0.2-0.4,0.4-0.3c0.2,0,0.4,0.2,0.3,0.4c0,0.1-0.2,1.7-1.9,3.3c-1.9,1.8-5.5,3.5-5.6,3.5
								C20.5,49.3,20.5,49.3,20.4,49.3z"/>
						</g>
					</g>
				</g>
			</g>
		</g>
		<g id="XMLID_5958_">
			<g id="XMLID_5991_">
				<path id="XMLID_6006_" fill="#F2AE32" d="M58.5,72.5c-0.1,0-0.3-0.1-0.3-0.2l-3.4-5.9c-0.1-0.2,0-0.4,0.1-0.5
					c0.2-0.1,0.4,0,0.5,0.1l3.4,5.9c0.1,0.2,0,0.4-0.1,0.5C58.7,72.5,58.6,72.5,58.5,72.5z"/>
				<path id="XMLID_6003_" fill="#F2AE32" d="M40,75.2c-0.8,0-1.4-0.6-1.4-1.4s0.6-1.4,1.4-1.4s1.4,0.6,1.4,1.4S40.8,75.2,40,75.2z
					 M40,73.2c-0.4,0-0.6,0.3-0.6,0.6s0.3,0.6,0.6,0.6s0.6-0.3,0.6-0.6S40.4,73.2,40,73.2z"/>
				<g id="XMLID_5992_">
					<path id="XMLID_6000_" fill="#F2AE32" d="M42.1,65.7h-4.3c-1.2,0-2.3-1-2.3-2.3s1-2.3,2.3-2.3h4.3c1.2,0,2.3,1,2.3,2.3
						S43.4,65.7,42.1,65.7z M37.9,61.9c-0.8,0-1.5,0.7-1.5,1.5c0,0.8,0.7,1.5,1.5,1.5h4.3c0.8,0,1.5-0.7,1.5-1.5
						c0-0.8-0.7-1.5-1.5-1.5H37.9z"/>
					<g id="XMLID_5993_">
						<g id="XMLID_5997_">
							<path id="XMLID_5999_" fill="#F2AE32" d="M44.5,70.2c-0.1,0-0.2,0-0.3-0.1c-0.1-0.1-2.1-1.9-2.3-4.6c0-0.2,0.1-0.4,0.4-0.4
								c0.2,0,0.4,0.1,0.4,0.4c0.2,2.5,2,4.1,2.1,4.1c0.2,0.1,0.2,0.4,0,0.6C44.7,70.1,44.6,70.2,44.5,70.2z"/>
							<path id="XMLID_5998_" fill="#F2AE32" d="M42.1,61.8c-0.2,0-0.4-0.2-0.4-0.4c0-0.2-0.3-4.1,0.3-6.6c0.5-2.3,1.8-3.3,1.9-3.3
								c0.2-0.1,0.4-0.1,0.5,0.1c0.1,0.2,0.1,0.4-0.1,0.5c0,0-1.1,0.9-1.6,2.9c-0.6,2.4-0.3,6.4-0.2,6.4
								C42.5,61.6,42.3,61.8,42.1,61.8C42.1,61.8,42.1,61.8,42.1,61.8z"/>
						</g>
						<g id="XMLID_5994_">
							<path id="XMLID_5996_" fill="#F2AE32" d="M35.5,70.2c-0.1,0-0.2,0-0.3-0.1c-0.1-0.2-0.1-0.4,0-0.6c0,0,1.8-1.7,2.1-4.1
								c0-0.2,0.2-0.4,0.4-0.4c0.2,0,0.4,0.2,0.4,0.4c-0.3,2.8-2.2,4.6-2.3,4.6C35.7,70.1,35.6,70.2,35.5,70.2z"/>
							<path id="XMLID_5995_" fill="#F2AE32" d="M37.9,61.8C37.9,61.8,37.9,61.8,37.9,61.8c-0.2,0-0.4-0.2-0.4-0.4
								c0,0,0.3-4-0.2-6.4c-0.5-2-1.6-2.9-1.6-2.9c-0.2-0.1-0.2-0.4-0.1-0.5c0.1-0.2,0.4-0.2,0.5-0.1c0.1,0,1.4,1.1,1.9,3.3
								c0.6,2.5,0.3,6.5,0.3,6.6C38.3,61.6,38.1,61.8,37.9,61.8z"/>
						</g>
					</g>
				</g>
			</g>
			<g id="XMLID_5975_">
				<path id="XMLID_5990_" fill="#F2AE32" d="M77.1,40.4h-6.8c-0.2,0-0.4-0.2-0.4-0.4s0.2-0.4,0.4-0.4h6.8c0.2,0,0.4,0.2,0.4,0.4
					S77.3,40.4,77.1,40.4z"/>
				<path id="XMLID_5987_" fill="#F2AE32" d="M69.3,58.3c-0.2,0-0.5-0.1-0.7-0.2c-0.3-0.2-0.6-0.5-0.7-0.9c-0.1-0.4,0-0.8,0.1-1.1
					c0.3-0.4,0.7-0.7,1.2-0.7c0.2,0,0.5,0.1,0.7,0.2c0.7,0.4,0.9,1.3,0.5,1.9C70.3,58.1,69.8,58.3,69.3,58.3z M69.3,56.3
					c-0.2,0-0.4,0.1-0.6,0.3c-0.1,0.1-0.1,0.3-0.1,0.5c0,0.2,0.2,0.3,0.3,0.4c0.3,0.2,0.7,0.1,0.9-0.2c0.2-0.3,0.1-0.7-0.2-0.9
					C69.5,56.3,69.4,56.3,69.3,56.3z"/>
				<g id="XMLID_5976_">
					<path id="XMLID_5984_" fill="#F2AE32" d="M59.2,55.8c-0.4,0-0.8-0.1-1.1-0.3c-0.5-0.3-0.9-0.8-1.1-1.4
						c-0.2-0.6-0.1-1.2,0.2-1.7l2.1-3.7c0.4-0.7,1.2-1.1,2-1.1c0.4,0,0.8,0.1,1.1,0.3c0.5,0.3,0.9,0.8,1.1,1.4
						c0.2,0.6,0.1,1.2-0.2,1.7l-2.1,3.7C60.7,55.4,60,55.8,59.2,55.8z M61.3,48.4c-0.5,0-1,0.3-1.3,0.7l-2.1,3.7
						c-0.2,0.3-0.2,0.7-0.1,1.1s0.3,0.7,0.7,0.9c0.2,0.1,0.5,0.2,0.7,0.2c0.5,0,1-0.3,1.3-0.7l2.1-3.7c0.2-0.3,0.2-0.7,0.1-1.1
						s-0.3-0.7-0.7-0.9C61.8,48.4,61.6,48.4,61.3,48.4z"/>
					<g id="XMLID_5977_">
						<g id="XMLID_5981_">
							<path id="XMLID_5983_" fill="#F2AE32" d="M65.9,51.7c-0.9,0-1.9-0.1-3-0.6c-0.2-0.1-0.3-0.3-0.2-0.5c0.1-0.2,0.3-0.3,0.5-0.2
								c2.3,1,4.6,0.3,4.6,0.3c0.2-0.1,0.4,0,0.5,0.3c0.1,0.2,0,0.4-0.3,0.5C68.1,51.4,67.2,51.7,65.9,51.7z"/>
							<path id="XMLID_5982_" fill="#F2AE32" d="M59.6,49.3c-0.1,0-0.1,0-0.2,0c-0.2-0.1-3.7-1.8-5.6-3.5c-1.7-1.6-1.9-3.2-1.9-3.3
								c0-0.2,0.1-0.4,0.3-0.4c0.2,0,0.4,0.1,0.4,0.3c0,0,0.2,1.4,1.7,2.8c1.8,1.7,5.4,3.4,5.4,3.4c0.2,0.1,0.3,0.3,0.2,0.5
								C59.9,49.2,59.7,49.3,59.6,49.3z"/>
						</g>
						<g id="XMLID_5978_">
							<path id="XMLID_5980_" fill="#F2AE32" d="M63.5,59.2c-0.2,0-0.3-0.1-0.4-0.3c0,0-0.5-2.4-2.5-3.9c-0.2-0.1-0.2-0.4-0.1-0.5
								c0.1-0.2,0.4-0.2,0.5-0.1c2.3,1.6,2.8,4.2,2.9,4.3C64,58.9,63.8,59.1,63.5,59.2C63.6,59.2,63.6,59.2,63.5,59.2z"/>
							<path id="XMLID_5979_" fill="#F2AE32" d="M57.5,52.9c-0.1,0-0.2,0-0.2-0.1c0,0-3.3-2.3-5.7-3c-2-0.6-3.3-0.1-3.3-0.1
								c-0.2,0.1-0.4,0-0.5-0.2c-0.1-0.2,0-0.4,0.2-0.5c0.1,0,1.6-0.7,3.8,0c2.5,0.8,5.7,3,5.9,3.1c0.2,0.1,0.2,0.4,0.1,0.5
								C57.7,52.8,57.6,52.9,57.5,52.9z"/>
						</g>
					</g>
				</g>
			</g>
			<g id="XMLID_5959_">
				<path id="XMLID_5974_" fill="#F2AE32" d="M55.1,14.2c-0.1,0-0.1,0-0.2-0.1c-0.2-0.1-0.3-0.3-0.1-0.5l3.4-5.9
					c0.1-0.2,0.3-0.3,0.5-0.1c0.2,0.1,0.3,0.3,0.1,0.5L55.5,14C55.4,14.1,55.3,14.2,55.1,14.2z"/>
				<path id="XMLID_5971_" fill="#F2AE32" d="M69.3,24.5c-0.5,0-1-0.3-1.2-0.7c-0.2-0.3-0.2-0.7-0.1-1.1c0.1-0.4,0.3-0.7,0.7-0.9
					c0.2-0.1,0.5-0.2,0.7-0.2c0.5,0,1,0.3,1.2,0.7c0.4,0.7,0.2,1.6-0.5,1.9C69.8,24.5,69.5,24.5,69.3,24.5z M69.3,22.5
					c-0.1,0-0.2,0-0.3,0.1c-0.1,0.1-0.3,0.2-0.3,0.4c0,0.2,0,0.3,0.1,0.5c0.2,0.3,0.6,0.4,0.9,0.2c0.3-0.2,0.4-0.6,0.2-0.9
					C69.7,22.6,69.5,22.5,69.3,22.5z"/>
				<g id="XMLID_5960_">
					<path id="XMLID_5968_" fill="#F2AE32" d="M61.3,32.4L61.3,32.4c-0.8,0-1.6-0.4-2-1.1l-2.1-3.7c-0.3-0.5-0.4-1.1-0.2-1.7
						c0.2-0.6,0.5-1.1,1.1-1.4c0.3-0.2,0.7-0.3,1.1-0.3c0.8,0,1.6,0.4,2,1.1l2.1,3.7c0.3,0.5,0.4,1.1,0.2,1.7
						c-0.2,0.6-0.5,1.1-1.1,1.4C62.1,32.3,61.7,32.4,61.3,32.4z M59.2,25c-0.3,0-0.5,0.1-0.7,0.2c-0.3,0.2-0.6,0.5-0.7,0.9
						c-0.1,0.4-0.1,0.8,0.1,1.1l2.1,3.7c0.3,0.5,0.8,0.7,1.3,0.7c0.3,0,0.5-0.1,0.7-0.2c0.3-0.2,0.6-0.5,0.7-0.9
						c0.1-0.4,0.1-0.8-0.1-1.1l-2.1-3.7C60.2,25.3,59.7,25,59.2,25z"/>
					<g id="XMLID_5961_">
						<g id="XMLID_5965_">
							<path id="XMLID_5967_" fill="#F2AE32" d="M60.8,25.7c-0.1,0-0.2-0.1-0.3-0.2c-0.1-0.2-0.1-0.4,0.1-0.5c2-1.4,2.5-3.8,2.5-3.9
								c0-0.2,0.3-0.3,0.5-0.3c0.2,0,0.3,0.3,0.3,0.5c0,0.1-0.6,2.7-2.9,4.3C61,25.7,60.9,25.7,60.8,25.7z"/>
							<path id="XMLID_5966_" fill="#F2AE32" d="M49.8,31.2c-1.1,0-1.7-0.3-1.8-0.3c-0.2-0.1-0.3-0.3-0.2-0.5
								c0.1-0.2,0.3-0.3,0.5-0.2c0,0,1.4,0.5,3.3-0.1c2.4-0.7,5.6-3,5.7-3c0.2-0.1,0.4-0.1,0.5,0.1c0.1,0.2,0.1,0.4-0.1,0.5
								c-0.1,0.1-3.4,2.3-5.9,3.1C51,31.1,50.4,31.2,49.8,31.2z"/>
						</g>
						<g id="XMLID_5962_">
							<path id="XMLID_5964_" fill="#F2AE32" d="M63.1,29.7c-0.1,0-0.3-0.1-0.4-0.2c-0.1-0.2,0-0.4,0.2-0.5c2.5-1.1,5.1-0.3,5.2-0.3
								c0.2,0.1,0.3,0.3,0.3,0.5c-0.1,0.2-0.3,0.3-0.5,0.3c0,0-2.4-0.7-4.6,0.3C63.2,29.7,63.2,29.7,63.1,29.7z"/>
							<path id="XMLID_5963_" fill="#F2AE32" d="M52.2,38.1C52.2,38.1,52.2,38,52.2,38.1c-0.3,0-0.4-0.2-0.4-0.4
								c0-0.1,0.2-1.7,1.9-3.3c1.9-1.8,5.5-3.5,5.6-3.5c0.2-0.1,0.4,0,0.5,0.2c0.1,0.2,0,0.4-0.2,0.5c0,0-3.6,1.7-5.4,3.4
								c-1.5,1.4-1.7,2.8-1.7,2.8C52.6,37.9,52.4,38.1,52.2,38.1z"/>
						</g>
					</g>
				</g>
			</g>
		</g>
	</g>
</g>
</svg>
